<svg width="125" height="86" viewBox="0 0 125 86" fill="none" xmlns="http://www.w3.org/2000/svg">
<g clip-path="url(#clip0_6306_12734)">
<path d="M62.5 23.4545H39.0625V46.9091H62.5V23.4545ZM70.3125 62.5455V70.3636H31.25V62.5455H70.3125ZM70.3125 15.6364V54.7273H31.25V15.6364H70.3125ZM109.375 62.5455V70.3636H78.125V62.5455H109.375ZM109.375 46.9091V54.7273H78.125V46.9091H109.375ZM109.375 31.2727V39.0909H78.125V31.2727H109.375ZM109.375 15.6364V23.4545H78.125V15.6364H109.375ZM15.625 74.2727V15.6364H7.8125V74.2727C7.8125 75.3314 8.19906 76.2476 8.97217 77.0213C9.74528 77.795 10.6608 78.1818 11.7188 78.1818C12.7767 78.1818 13.6922 77.795 14.4653 77.0213C15.2384 76.2476 15.625 75.3314 15.625 74.2727ZM117.188 74.2727V7.81818H23.4375V74.2727C23.4375 75.6165 23.2137 76.9195 22.7661 78.1818H113.281C114.339 78.1818 115.255 77.795 116.028 77.0213C116.801 76.2476 117.188 75.3314 117.188 74.2727ZM125 0V74.2727C125 77.5303 123.861 80.2992 121.582 82.5795C119.303 84.8598 116.536 86 113.281 86H11.7188C8.46354 86 5.69661 84.8598 3.41797 82.5795C1.13932 80.2992 0 77.5303 0 74.2727V7.81818H15.625V0H125Z" fill="black"/>
</g>
<defs>
<clipPath id="clip0_6306_12734">
<rect width="125" height="86" fill="white"/>
</clipPath>
</defs>
</svg>
